<?xml version="1.0" encoding="utf-8"?>
<!-- Generator: Adobe Illustrator 23.0.1, SVG Export Plug-In . SVG Version: 6.00 Build 0)  -->
<svg version="1.1" id="Layer_1" xmlns="http://www.w3.org/2000/svg" xmlns:xlink="http://www.w3.org/1999/xlink" x="0px" y="0px"
	 viewBox="0 0 1300.6 250.1" style="enable-background:new 0 0 1300.6 250.1;" xml:space="preserve" height="20px">
<style type="text/css">
	.st0{fill:#00A248;}
</style>
<polygon id="XMLID_12250_" class="st0" points="259.1,1 149.4,185 60.1,36 148.3,36 126.1,72.7 146.1,106 209.2,1 -0.9,1
	149.1,251.1 299.1,1 "/>
<g>
	<path class="st0" d="M494.9,72.1c-6.1-6.1-13.4-10.9-22-14.4c-8.2-3.3-16.9-5-26.2-5c-9.8,0-18.4,1.7-25.9,5.2
		c-7.2,3.3-12,7.5-14.4,12.6V56h-32.2v185h33.3v-63.9c2.4,5.1,7.2,9.3,14.1,12.6c7.3,3.5,15.8,5.2,25.4,5.2c8.7,0,17.3-1.7,25.7-5.2
		c8-3.3,15.3-8.2,21.7-14.7c6.3-6.3,11.3-13.8,14.9-22.5c3.7-8.6,5.5-18.2,5.5-28.8c0-10.5-1.3-20.3-5-29.1
		C506.1,85.9,501.2,78.3,494.9,72.1z M478.4,138.3c-1.9,4.5-4.5,8.4-7.9,11.5c-3.1,3-7.2,5.4-12.3,7.3c-4.5,1.7-9.8,2.6-15.7,2.6
		c-8.4,0-15.8-1.7-22.3-5c-6.5-3.3-10.7-7.5-12.8-12.6v-35.9c2.1-5.1,6.4-9.3,12.8-12.6c6.5-3.3,13.9-5,22.3-5
		c5.9,0,11.2,0.9,15.7,2.6c5.1,1.9,9.2,4.4,12.3,7.3c3.5,3.1,6.1,6.9,7.9,11.3c1.9,4.6,2.8,9.3,2.9,14
		C481.2,129,480.2,133.7,478.4,138.3z"/>
	<rect x="541.1" y="11" class="st0" width="33.3" height="179.4"/>
	<path class="st0" d="M702.4,66c-5.2-4.4-11.5-7.8-18.9-10.2c-7.7-2.4-15.8-3.7-24.4-3.7c-5.2,0-10.5,0.5-15.7,1.6
		c-5.4,1-10.3,2.6-14.7,4.7c-4.4,2.1-8.5,4.6-12.3,7.6c-3.8,3-6.9,6.4-9.2,10.2h0.3l8.1,27.2c3.8-4.9,9.3-9.1,16.2-12.6
		c6.6-3.3,14.3-5,23-5c10,0,17.5,2.4,22.8,7.1c5.2,4.7,7.9,11,7.9,18.9v3.7c-1.7-2.3-5.4-4.5-11-6.5c-5.6-2.1-12.7-3.1-21.2-3.1
		c-6.5,0-13,1-19.6,2.9c-6.3,1.7-12,4.5-17,8.4c-4.9,3.7-8.8,8.3-11.8,13.9c-3,5.6-4.5,11.9-4.5,18.9c0,6.6,1.2,12.8,3.7,18.6
		c2.4,5.6,5.8,10.2,10.2,13.9c4.5,3.7,9.8,6.5,15.7,8.6c5.9,2.1,12.5,3.1,19.6,3.1c7.2,0,14.3-1.3,21.5-3.9
		c7-2.6,12.2-6.5,15.7-11.5V191h32.2v-85.2c0-8.4-1.5-16.1-4.5-23C711.9,76.2,707.8,70.6,702.4,66z M685.9,152.2
		c-1.6,3.1-4.7,5.8-9.4,7.9c-4.7,2.1-10.1,3.1-16.2,3.1c-8.6,0-15-1.3-19.4-3.9c-4.5-2.6-6.8-6.2-6.8-10.7c0-4.5,2.2-8.2,6.5-11
		c4.4-2.8,10.9-4.2,19.6-4.2c5.9,0,11.3,1,16.2,2.9c4.9,1.9,7.9,4,9.2,6.3h0.3V152.2z"/>
	<path class="st0" d="M1136,72.8c-6.6-6.3-14.2-11.3-22.8-14.9c-8.6-3.7-17.7-5.5-27.5-5.5c-9.8,0-18.9,1.8-27.5,5.5
		c-8.6,3.7-16.2,8.6-22.8,14.9c-6.5,6.3-11.7,13.8-15.7,22.5c-3.8,8.4-5.8,17.8-5.8,28.3c0,10.5,1.9,19.9,5.8,28.3
		c4,8.7,9.3,16.2,15.7,22.5c6.6,6.3,14.2,11.3,22.8,14.9c8.6,3.7,17.7,5.5,27.5,5.5c9.8,0,18.9-1.8,27.5-5.5
		c8.6-3.7,16.1-8.6,22.8-14.9c6.6-6.3,11.9-13.7,15.7-22.3c3.8-8.4,5.8-17.8,5.8-28.3v-0.3c0-10.5-1.9-19.9-5.8-28.3
		C1147.7,86.6,1142.5,79.1,1136,72.8z M1120.8,138.8c-2.1,4.4-4.8,8.1-8.1,11.3c-3.3,3-7.2,5.4-11.8,7.3c-4.2,1.7-9.1,2.6-14.7,2.6
		c-5.4,0-10.4-0.9-14.9-2.6c-4.7-1.9-8.7-4.4-12-7.3c-3.5-3.1-6.1-6.9-7.9-11.3c-1.9-4.7-2.9-9.5-2.9-14.4v-0.5
		c0-4.9,1-9.7,2.9-14.4c1.7-4.4,4.4-8.1,7.9-11.3c3.3-3,7.3-5.4,12-7.3c4.5-1.7,9.5-2.6,14.9-2.6c5.6,0,10.5,0.9,14.7,2.6
		c4.5,1.9,8.5,4.4,11.8,7.3c3.1,3,5.8,6.8,8.1,11.5c2.1,4.5,3.1,9.4,3.1,14.7C1124,129.5,1122.9,134.3,1120.8,138.8z"/>
	<polygon class="st0" points="1249.3,119.7 1295.4,56.1 1254.5,56.1 1228.6,92.2 1202.6,56.1 1162.8,56.1 1208.9,119.7 1157.6,191
		1198.2,191 1229.6,147.2 1261,191 1300.6,191 	"/>
	<path class="st0" d="M939.6,143.3l-34.8-87.2h-29v0h-36.9l-35.4,83.8l-35.4-83.8h-35.9l54,126.5c0,0,0.4,0.2-5.8,13.5
		c-11.7,25.3-33.2,20.3-43,17v32.1c4.6,1.4,13.2,3,22.4,3c25.6,0,44.7-23.4,54.6-46.9c38.5-90.9,52.8-124.9,58.2-137.6L924.9,191
		h30.4l55.5-134.9h-36.4L939.6,143.3z"/>
</g>
</svg>
